<?xml version="1.0" standalone="no"?><!DOCTYPE svg PUBLIC "-//W3C//DTD SVG 1.1//EN" "http://www.w3.org/Graphics/SVG/1.1/DTD/svg11.dtd"><svg t="1650872211337" class="icon" viewBox="0 0 1024 1024" version="1.1" xmlns="http://www.w3.org/2000/svg" p-id="18129" xmlns:xlink="http://www.w3.org/1999/xlink" width="200" height="200"><defs><style type="text/css">@font-face { font-family: feedback-iconfont; src: url("//at.alicdn.com/t/font_1031158_u69w8yhxdu.woff2?t=1630033759944") format("woff2"), url("//at.alicdn.com/t/font_1031158_u69w8yhxdu.woff?t=1630033759944") format("woff"), url("//at.alicdn.com/t/font_1031158_u69w8yhxdu.ttf?t=1630033759944") format("truetype"); }
</style></defs><path d="M896 665.6a25.6 25.6 0 1 1 0 51.2H749.62l165.17 165.069a23.296 23.296 0 0 1 2.97 29.286l-2.97 3.584a23.296 23.296 0 0 1-29.286 3.072l-3.635-3.072L716.8 749.773V896a25.6 25.6 0 1 1-51.2 0V690.022a23.194 23.194 0 0 1 24.474-24.37L896 665.6z m-562.074 0a23.194 23.194 0 0 1 24.423 24.422l0.051 1.178V896a25.6 25.6 0 1 1-51.2 0V749.722L142.131 914.79l-3.635 2.97a23.296 23.296 0 0 1-29.286-2.97l-2.97-3.635a23.296 23.296 0 0 1 2.97-29.286L274.432 716.8H128a25.6 25.6 0 1 1 0-51.2z m577.23-559.309l3.583 2.97a23.296 23.296 0 0 1 3.072 29.286l-3.072 3.635L749.773 307.2H896a25.6 25.6 0 1 1 0 51.2H690.022a23.194 23.194 0 0 1-24.422-24.525V128a25.6 25.6 0 1 1 51.2 0v146.38l165.069-165.17a23.296 23.296 0 0 1 29.286-2.97zM332.8 102.4a25.6 25.6 0 0 1 25.6 25.6v204.8a19.968 19.968 0 0 1 0 1.126 23.194 23.194 0 0 1-24.422 24.423l-1.178 0.051H128a25.6 25.6 0 0 1 0-51.2h146.278L109.21 142.131l-2.97-3.635a23.296 23.296 0 0 1 2.97-29.286l3.635-2.97a23.296 23.296 0 0 1 29.286 2.97L307.2 274.432V128a25.6 25.6 0 0 1 25.6-25.6z" fill="#FFFFFF" p-id="18130"></path></svg>