<svg t="1650872205627" class="icon" viewBox="0 0 1024 1024" version="1.1" xmlns="http://www.w3.org/2000/svg" p-id="17999" xmlns:xlink="http://www.w3.org/1999/xlink" width="200" height="200"><defs><style type="text/css">@font-face { font-family: feedback-iconfont; src: url("//at.alicdn.com/t/font_1031158_u69w8yhxdu.woff2?t=1630033759944") format("woff2"), url("//at.alicdn.com/t/font_1031158_u69w8yhxdu.woff?t=1630033759944") format("woff"), url("//at.alicdn.com/t/font_1031158_u69w8yhxdu.ttf?t=1630033759944") format("truetype"); }
</style></defs><path d="M991.96 703.987a31.997 31.997 0 0 1 31.996 31.997v257.383a28.99 28.99 0 0 1-30.525 30.525l-1.471 0.064H735.984a31.997 31.997 0 1 1 0-63.993h182.83L712.499 753.646a29.117 29.117 0 0 1 36.605-44.86l4.543 3.712 206.317 206.509V735.984a31.997 31.997 0 0 1 31.997-31.997z m-717.052 4.8a29.117 29.117 0 0 1 36.605 44.86L105.196 959.962h182.83a31.997 31.997 0 1 1 0 63.993H30.58A28.99 28.99 0 0 1 0.054 993.303V735.984a31.997 31.997 0 1 1 63.994 0v182.959l206.317-206.445zM993.368 0.054a28.99 28.99 0 0 1 30.588 30.525v257.448a31.997 31.997 0 1 1-63.993 0v-182.83L753.646 311.512a29.117 29.117 0 0 1-44.86-36.605l3.712-4.543L919.007 64.048H735.984a31.997 31.997 0 1 1 0-63.994h257.383z m-705.341 0a31.997 31.997 0 0 1 0 63.994H105.068l206.445 206.317 3.711 4.543a29.117 29.117 0 0 1-44.86 36.605L64.049 105.196v182.83a31.997 31.997 0 0 1-63.994 0V30.58A28.99 28.99 0 0 1 30.707 0.054z" fill="#FFFFFF" p-id="18000"></path></svg>