<?xml version="1.0" standalone="no"?><!DOCTYPE svg PUBLIC "-//W3C//DTD SVG 1.1//EN" "http://www.w3.org/Graphics/SVG/1.1/DTD/svg11.dtd"><svg t="1650894094513" class="icon" viewBox="0 0 1024 1024" version="1.1" xmlns="http://www.w3.org/2000/svg" p-id="18653" xmlns:xlink="http://www.w3.org/1999/xlink" width="200" height="200"><defs><style type="text/css">@font-face { font-family: feedback-iconfont; src: url("//at.alicdn.com/t/font_1031158_u69w8yhxdu.woff2?t=1630033759944") format("woff2"), url("//at.alicdn.com/t/font_1031158_u69w8yhxdu.woff?t=1630033759944") format("woff"), url("//at.alicdn.com/t/font_1031158_u69w8yhxdu.ttf?t=1630033759944") format("truetype"); }
</style></defs><path d="M548.66 75.366a30.72 30.72 0 0 1 45.26 27.034v819.2a30.72 30.72 0 0 1-45.26 27.034L222.668 773.12H102.4a81.92 81.92 0 0 1-81.562-74.445l-0.358-7.475V332.8a81.92 81.92 0 0 1 81.92-81.92h120.166z m-16.18 78.439L244.94 308.634a30.72 30.72 0 0 1-14.54 3.686h-128a20.48 20.48 0 0 0-20.48 20.48v358.4c0 11.264 9.216 20.48 20.48 20.48h128a30.72 30.72 0 0 1 14.54 3.686l287.54 154.778v-716.34z m438.682 209.817a23.86 23.86 0 0 1 3.02 29.696l-3.072 3.738L858.368 509.85l112.333 112.384a23.86 23.86 0 0 1 3.02 29.747l-3.02 3.686a23.552 23.552 0 0 1-29.696 2.97l-3.738-2.97-112.435-112.384-112.486 112.589a24.73 24.73 0 0 1-12.135 6.144l-4.505 0.512a23.552 23.552 0 0 1-19.61-36.608l2.97-3.686L791.347 509.85 678.656 397.056a23.86 23.86 0 0 1-3.072-29.747l3.072-3.687a23.86 23.86 0 0 1 29.696-3.072l3.738 3.072 112.742 112.743 112.845-112.743a23.808 23.808 0 0 1 33.485 0z" fill="#FFFFFF" p-id="18654"></path></svg>