<?xml version="1.0" standalone="no"?><!DOCTYPE svg PUBLIC "-//W3C//DTD SVG 1.1//EN" "http://www.w3.org/Graphics/SVG/1.1/DTD/svg11.dtd"><svg t="1650894144185" class="icon" viewBox="0 0 1024 1024" version="1.1" xmlns="http://www.w3.org/2000/svg" p-id="19173" xmlns:xlink="http://www.w3.org/1999/xlink" width="200" height="200"><defs><style type="text/css">@font-face { font-family: feedback-iconfont; src: url("//at.alicdn.com/t/font_1031158_u69w8yhxdu.woff2?t=1630033759944") format("woff2"), url("//at.alicdn.com/t/font_1031158_u69w8yhxdu.woff?t=1630033759944") format("woff"), url("//at.alicdn.com/t/font_1031158_u69w8yhxdu.ttf?t=1630033759944") format("truetype"); }
</style></defs><path d="M551.066 79.872A25.6 25.6 0 0 1 588.8 102.4v819.2a25.6 25.6 0 0 1-37.734 22.528L223.898 768H102.4a76.8 76.8 0 0 1-76.442-69.427L25.6 691.2V332.8a76.8 76.8 0 0 1 76.8-76.8h121.446zM537.6 145.254L242.534 304.128A25.6 25.6 0 0 1 230.4 307.2h-128a25.6 25.6 0 0 0-25.6 25.6v358.4a25.6 25.6 0 0 0 25.6 25.6h128a25.6 25.6 0 0 1 12.134 3.072L537.6 878.694v-733.44z m224 37.888A383.744 383.744 0 0 1 947.2 512a383.795 383.795 0 0 1-189.389 331.11 25.6 25.6 0 1 1-25.958-44.134A332.595 332.595 0 0 0 896 512a332.544 332.544 0 0 0-160.922-285.03 25.6 25.6 0 0 1 26.522-43.828z m-59.75 144.845A230.042 230.042 0 0 1 793.6 512c0 71.987-33.28 138.547-88.986 181.914a25.6 25.6 0 1 1-31.436-40.448A178.842 178.842 0 0 0 742.4 512a178.842 178.842 0 0 0-71.373-143.155 25.6 25.6 0 0 1 30.823-40.858z" fill="#FFFFFF" p-id="19174"></path></svg>