<?xml version="1.0" standalone="no"?><!DOCTYPE svg PUBLIC "-//W3C//DTD SVG 1.1//EN" "http://www.w3.org/Graphics/SVG/1.1/DTD/svg11.dtd"><svg t="1650894110817" class="icon" viewBox="0 0 1024 1024" version="1.1" xmlns="http://www.w3.org/2000/svg" p-id="18913" xmlns:xlink="http://www.w3.org/1999/xlink" width="200" height="200"><defs><style type="text/css">@font-face { font-family: feedback-iconfont; src: url("//at.alicdn.com/t/font_1031158_u69w8yhxdu.woff2?t=1630033759944") format("woff2"), url("//at.alicdn.com/t/font_1031158_u69w8yhxdu.woff?t=1630033759944") format("woff"), url("//at.alicdn.com/t/font_1031158_u69w8yhxdu.ttf?t=1630033759944") format("truetype"); }
</style></defs><path d="M599.86 75.366a30.72 30.72 0 0 1 45.26 27.034v819.2a30.72 30.72 0 0 1-45.26 27.034L273.868 773.12H153.6a81.92 81.92 0 0 1-81.562-74.445l-0.358-7.475V332.8a81.92 81.92 0 0 1 81.92-81.92h120.166z m-16.18 78.439L296.14 308.634a30.72 30.72 0 0 1-14.54 3.686h-128a20.48 20.48 0 0 0-20.48 20.48v358.4c0 11.264 9.216 20.48 20.48 20.48h128a30.72 30.72 0 0 1 14.54 3.686l287.54 154.778v-716.34zM756.122 323.89A235.162 235.162 0 0 1 849.92 512a235.11 235.11 0 0 1-90.931 185.958 30.72 30.72 0 0 1-37.786-48.486A173.722 173.722 0 0 0 788.48 512a173.722 173.722 0 0 0-69.325-139.06 30.72 30.72 0 1 1 36.967-49.049z" fill="#FFFFFF" p-id="18914"></path></svg>